<svg width="18" height="16" viewBox="0 0 18 16" fill="none" xmlns="http://www.w3.org/2000/svg">
<path d="M13.05 5.10637e-08C12.255 -0.000112435 11.4717 0.18562 10.7667 0.54143C10.0616 0.89724 9.45556 1.41262 9 2.04381C8.54444 1.41262 7.9384 0.89724 7.23333 0.54143C6.52826 0.18562 5.74499 -0.000112435 4.95 5.10637e-08C3.63718 5.10637e-08 2.37813 0.505254 1.44982 1.40461C0.521517 2.30397 0 3.52376 0 4.79564C0 9.78223 5.85 13.8969 9 16C12.15 13.8969 18 9.78223 18 4.79564C18 4.16587 17.872 3.54226 17.6232 2.96043C17.3744 2.37859 17.0098 1.84993 16.5502 1.40461C16.0905 0.959294 15.5448 0.60605 14.9443 0.365046C14.3437 0.124043 13.7 5.10637e-08 13.05 5.10637e-08Z" fill="#A9A7A7"/>
</svg>
