<svg width="19" height="21" viewBox="0 0 19 21" fill="none" xmlns="http://www.w3.org/2000/svg">
<path d="M2 9.30838C2 7.95062 2 7.27174 2.29407 6.675C2.58813 6.07826 3.14039 5.63645 4.24491 4.75284L5.31634 3.89569C7.31275 2.29856 8.31096 1.5 9.5 1.5C10.689 1.5 11.6872 2.29856 13.6837 3.89569L14.7551 4.75284C15.8596 5.63645 16.4119 6.07826 16.7059 6.675C17 7.27174 17 7.95062 17 9.30838V13.5488C17 15.4344 17 16.3772 16.3724 16.963C15.7447 17.5488 14.7346 17.5488 12.7143 17.5488H6.28571C4.26541 17.5488 3.25526 17.5488 2.62763 16.963C2 16.3772 2 15.4344 2 13.5488V9.30838Z" fill="#A9A7A7" stroke="#A9A7A7" stroke-width="3"/>
<path d="M12.7143 19.5V13.5C12.7143 12.9477 12.2666 12.5 11.7143 12.5H8.35715C7.80486 12.5 7.35715 12.9477 7.35715 13.5V19.5" stroke="#4D2C5A" stroke-width="1.5" stroke-linecap="round" stroke-linejoin="round"/>
</svg>
