<svg width="22" height="22" viewBox="0 0 22 22" fill="none" xmlns="http://www.w3.org/2000/svg">
<path d="M16.5001 2.75009H6.26458C6.04834 2.13847 5.62285 1.623 5.06331 1.29476C4.50376 0.966521 3.8462 0.846659 3.20683 0.956358C2.56746 1.06606 1.98745 1.39825 1.56932 1.89423C1.15119 2.39021 0.921857 3.01804 0.921857 3.66675C0.921857 4.31547 1.15119 4.9433 1.56932 5.43928C1.98745 5.93526 2.56746 6.26745 3.20683 6.37715C3.8462 6.48685 4.50376 6.36699 5.06331 6.03875C5.62285 5.71051 6.04834 5.19503 6.26458 4.58342H16.5001C17.2294 4.58342 17.9289 4.87315 18.4446 5.38888C18.9604 5.9046 19.2501 6.60407 19.2501 7.33342C19.2501 8.06277 18.9604 8.76224 18.4446 9.27796C17.9289 9.79369 17.2294 10.0834 16.5001 10.0834H13.5961C13.4032 9.55284 13.0517 9.09447 12.5893 8.77057C12.127 8.44666 11.5761 8.27291 11.0115 8.27291C10.447 8.27291 9.89612 8.44666 9.43374 8.77057C8.97136 9.09447 8.61987 9.55284 8.427 10.0834H5.50008C4.28451 10.0834 3.11872 10.5663 2.25918 11.4258C1.39963 12.2854 0.916748 13.4512 0.916748 14.6668C0.916748 15.8823 1.39963 17.0481 2.25918 17.9077C3.11872 18.7672 4.28451 19.2501 5.50008 19.2501H11.0001V22.0001L14.6667 18.3334L11.0001 14.6668V17.4168H5.50008C4.77074 17.4168 4.07126 17.127 3.55554 16.6113C3.03981 16.0956 2.75008 15.3961 2.75008 14.6668C2.75008 13.9374 3.03981 13.2379 3.55554 12.7222C4.07126 12.2065 4.77074 11.9168 5.50008 11.9168H8.43617C8.63082 12.4443 8.98249 12.8994 9.44379 13.2209C9.90509 13.5424 10.4539 13.7147 11.0161 13.7147C11.5784 13.7147 12.1272 13.5424 12.5885 13.2209C13.0498 12.8994 13.4014 12.4443 13.5961 11.9168H16.5001C17.7157 11.9168 18.8814 11.4339 19.741 10.5743C20.6005 9.71478 21.0834 8.549 21.0834 7.33342C21.0834 6.11784 20.6005 4.95206 19.741 4.09251C18.8814 3.23297 17.7157 2.75009 16.5001 2.75009ZM3.66675 4.58342C3.48545 4.58342 3.30822 4.52966 3.15748 4.42893C3.00673 4.32821 2.88924 4.18505 2.81986 4.01755C2.75048 3.85005 2.73233 3.66574 2.76769 3.48792C2.80306 3.3101 2.89037 3.14677 3.01857 3.01857C3.14677 2.89037 3.3101 2.80307 3.48792 2.7677C3.66573 2.73233 3.85004 2.75048 4.01754 2.81986C4.18504 2.88924 4.3282 3.00674 4.42893 3.15748C4.52965 3.30823 4.58342 3.48545 4.58342 3.66675C4.58342 3.90987 4.48684 4.14303 4.31493 4.31493C4.14302 4.48684 3.90986 4.58342 3.66675 4.58342ZM11.0001 11.9168C10.8188 11.9168 10.6416 11.863 10.4908 11.7623C10.3401 11.6615 10.2226 11.5184 10.1532 11.3509C10.0838 11.1834 10.0657 10.9991 10.101 10.8213C10.1364 10.6434 10.2237 10.4801 10.3519 10.3519C10.4801 10.2237 10.6434 10.1364 10.8212 10.101C10.9991 10.0657 11.1834 10.0838 11.3509 10.1532C11.5184 10.2226 11.6615 10.3401 11.7623 10.4908C11.863 10.6416 11.9167 10.8188 11.9167 11.0001C11.9167 11.2432 11.8202 11.4764 11.6483 11.6483C11.4764 11.8202 11.2432 11.9168 11.0001 11.9168Z" fill="#A9A7A7"/>
</svg>
