<svg width="18" height="20" viewBox="0 0 18 20" fill="none" xmlns="http://www.w3.org/2000/svg">
  <path d="M2.05957 18.1969C2.05957 19.1344 2.8122 19.895 3.74285 19.895H14.4782C15.4071 19.895 16.1614 19.1353 16.1614 18.1969V2.89562C16.1614 1.95812 15.4069 1.19812 14.4782 1.19812H3.74285C2.81191 1.19812 2.05957 1.95781 2.05957 2.89562V18.1969Z" fill="#4D2C5A"/>
  <path d="M2.05957 16.9999C2.05957 17.9374 2.8122 18.698 3.74285 18.698H14.4782C15.4071 18.698 16.1614 17.9377 16.1614 16.9999V1.69835C16.1617 0.760854 15.4071 0.000854492 14.4782 0.000854492H3.74285C2.81191 0.000854492 2.05957 0.760542 2.05957 1.69835V16.9999Z" fill="#FFFFFF"/>
  <path d="M14.0397 4.1122H4.48901C3.84579 4.1122 3.84579 3.10876 4.48901 3.10876H14.0397C14.6809 3.10845 14.6809 4.1122 14.0397 4.1122ZM14.0397 6.14908H4.48901C3.84579 6.14908 3.84579 5.14626 4.48901 5.14626H14.0397C14.6809 5.14626 14.6809 6.14908 14.0397 6.14908ZM14.0397 8.23126H4.48901C3.84579 8.23126 3.84579 7.22783 4.48901 7.22783H14.0397C14.6809 7.22783 14.6809 8.23126 14.0397 8.23126ZM14.0397 10.2685H4.48901C3.84579 10.2685 3.84579 9.2647 4.48901 9.2647H14.0397C14.6809 9.2647 14.6809 10.2685 14.0397 10.2685ZM14.0397 14.2H9.64347C9.00307 14.2 9.00307 13.1966 9.64347 13.1966H14.0397C14.6809 13.1969 14.6809 14.2 14.0397 14.2Z" fill="#4D2C5A"/>
</svg>
