<svg width="22" height="22" viewBox="0 0 22 22" fill="none" xmlns="http://www.w3.org/2000/svg">
<path d="M16.4998 2.75009H6.26434C6.0481 2.13847 5.62261 1.623 5.06306 1.29476C4.50352 0.966521 3.84595 0.846659 3.20658 0.956358C2.56721 1.06606 1.9872 1.39825 1.56907 1.89423C1.15094 2.39021 0.921612 3.01804 0.921612 3.66675C0.921612 4.31547 1.15094 4.9433 1.56907 5.43928C1.9872 5.93526 2.56721 6.26745 3.20658 6.37715C3.84595 6.48685 4.50352 6.36699 5.06306 6.03875C5.62261 5.71051 6.0481 5.19503 6.26434 4.58342H16.4998C17.2292 4.58342 17.9287 4.87315 18.4444 5.38888C18.9601 5.9046 19.2498 6.60407 19.2498 7.33342C19.2498 8.06277 18.9601 8.76224 18.4444 9.27796C17.9287 9.79369 17.2292 10.0834 16.4998 10.0834H13.5958C13.403 9.55284 13.0515 9.09447 12.5891 8.77057C12.1267 8.44666 11.5758 8.27291 11.0113 8.27291C10.4467 8.27291 9.89588 8.44666 9.4335 8.77057C8.97111 9.09447 8.61962 9.55284 8.42675 10.0834H5.49984C4.28426 10.0834 3.11847 10.5663 2.25893 11.4258C1.39939 12.2854 0.916504 13.4512 0.916504 14.6668C0.916504 15.8823 1.39939 17.0481 2.25893 17.9077C3.11847 18.7672 4.28426 19.2501 5.49984 19.2501H10.9998V22.0001L14.6665 18.3334L10.9998 14.6668V17.4168H5.49984C4.77049 17.4168 4.07102 17.127 3.55529 16.6113C3.03957 16.0956 2.74984 15.3961 2.74984 14.6668C2.74984 13.9374 3.03957 13.2379 3.55529 12.7222C4.07102 12.2065 4.77049 11.9168 5.49984 11.9168H8.43592C8.63057 12.4443 8.98224 12.8994 9.44354 13.2209C9.90485 13.5424 10.4536 13.7147 11.0159 13.7147C11.5782 13.7147 12.1269 13.5424 12.5882 13.2209C13.0495 12.8994 13.4012 12.4443 13.5958 11.9168H16.4998C17.7154 11.9168 18.8812 11.4339 19.7407 10.5743C20.6003 9.71478 21.0832 8.549 21.0832 7.33342C21.0832 6.11784 20.6003 4.95206 19.7407 4.09251C18.8812 3.23297 17.7154 2.75009 16.4998 2.75009ZM3.6665 4.58342C3.4852 4.58342 3.30798 4.52966 3.15723 4.42893C3.00649 4.32821 2.88899 4.18505 2.81961 4.01755C2.75023 3.85005 2.73208 3.66574 2.76745 3.48792C2.80282 3.3101 2.89012 3.14677 3.01832 3.01857C3.14652 2.89037 3.30986 2.80307 3.48767 2.7677C3.66549 2.73233 3.8498 2.75048 4.0173 2.81986C4.1848 2.88924 4.32796 3.00674 4.42868 3.15748C4.52941 3.30823 4.58317 3.48545 4.58317 3.66675C4.58317 3.90987 4.48659 4.14303 4.31469 4.31493C4.14278 4.48684 3.90962 4.58342 3.6665 4.58342ZM10.9998 11.9168C10.8185 11.9168 10.6413 11.863 10.4906 11.7623C10.3398 11.6615 10.2223 11.5184 10.1529 11.3509C10.0836 11.1834 10.0654 10.9991 10.1008 10.8213C10.1362 10.6434 10.2235 10.4801 10.3517 10.3519C10.4799 10.2237 10.6432 10.1364 10.821 10.101C10.9988 10.0657 11.1831 10.0838 11.3506 10.1532C11.5181 10.2226 11.6613 10.3401 11.762 10.4908C11.8627 10.6416 11.9165 10.8188 11.9165 11.0001C11.9165 11.2432 11.8199 11.4764 11.648 11.6483C11.4761 11.8202 11.243 11.9168 10.9998 11.9168Z" fill="white"/>
</svg>
