<svg width="18" height="19" viewBox="0 0 18 19" fill="none" xmlns="http://www.w3.org/2000/svg">
<path d="M9 18.6956C4.02353 18.6956 0 14.5165 0 9.34778C0 4.17901 4.02353 0 9 0C13.9765 0 18 4.17901 18 9.34778C18 14.5165 13.9765 18.6956 9 18.6956ZM9 1.09974C4.60588 1.09974 1.05882 4.78386 1.05882 9.34778C1.05882 13.9117 4.60588 17.5958 9 17.5958C13.3941 17.5958 16.9412 13.9117 16.9412 9.34778C16.9412 4.78386 13.3941 1.09974 9 1.09974Z" fill="#694D75"/>
<path d="M6.91023 12.9624C6.71484 12.9624 6.54751 12.8901 6.40825 12.7455C6.26898 12.6008 6.19947 12.4272 6.19971 12.2245V8.53454C6.19971 8.3316 6.26934 8.1578 6.4086 8.01316C6.54787 7.86851 6.71508 7.79632 6.91023 7.79656H7.2655V7.05858C7.2655 6.54814 7.43875 6.11298 7.78525 5.75309C8.13175 5.3932 8.5506 5.21338 9.04181 5.21362C9.53326 5.21362 9.95223 5.39357 10.2987 5.75346C10.6452 6.11335 10.8184 6.54839 10.8181 7.05858V7.79656H11.1734C11.3688 7.79656 11.5361 7.86888 11.6754 8.01353C11.8146 8.15817 11.8842 8.33185 11.8839 8.53454V12.2245C11.8839 12.4274 11.8143 12.6012 11.675 12.7458C11.5358 12.8905 11.3686 12.9627 11.1734 12.9624H6.91023ZM9.04181 11.1175C9.23721 11.1175 9.40454 11.0452 9.5438 10.9005C9.68306 10.7559 9.75258 10.5822 9.75234 10.3795C9.75234 10.1766 9.68271 10.0028 9.54345 9.85812C9.40418 9.71347 9.23697 9.64127 9.04181 9.64152C8.84642 9.64152 8.67909 9.71384 8.53983 9.85848C8.40056 10.0031 8.33105 10.1768 8.33129 10.3795C8.33129 10.5824 8.40092 10.7562 8.54018 10.9009C8.67945 11.0455 8.84666 11.1177 9.04181 11.1175ZM7.97602 7.79656H10.1076V7.05858C10.1076 6.75109 10.004 6.48972 9.79675 6.27447C9.58951 6.05923 9.33787 5.95161 9.04181 5.95161C8.74576 5.95161 8.49412 6.05923 8.28688 6.27447C8.07964 6.48972 7.97602 6.75109 7.97602 7.05858V7.79656Z" fill="#694D75"/>
</svg>
