<svg width="18" height="19" viewBox="0 0 18 19" fill="none" xmlns="http://www.w3.org/2000/svg">
<g clip-path="url(#clip0_328_341)">
<path d="M8.80371 18.2815C3.93578 18.2815 0 14.4815 0 9.78149C0 5.08149 3.93578 1.28149 8.80371 1.28149C13.6716 1.28149 17.6074 5.08149 17.6074 9.78149C17.6074 14.4815 13.6716 18.2815 8.80371 18.2815ZM8.80371 2.28149C4.50543 2.28149 1.03573 5.63149 1.03573 9.78149C1.03573 13.9315 4.50543 17.2815 8.80371 17.2815C13.102 17.2815 16.5717 13.9315 16.5717 9.78149C16.5717 5.63149 13.102 2.28149 8.80371 2.28149Z" fill="#694D75"/>
<path d="M8.64014 12.7271H9.64014V13.616H8.64014V12.7271ZM9.44014 11.8382H8.84014L8.64014 8.28263V5.61597H9.64014V8.28263L9.44014 11.8382Z" fill="#694D75"/>
</g>
<defs>
<clipPath id="clip0_328_341">
<rect width="18" height="18" fill="white" transform="translate(0 0.855957)"/>
</clipPath>
</defs>
</svg>
