<svg width="35" height="35" viewBox="0 0 35 35" fill="none" xmlns="http://www.w3.org/2000/svg">
<g clip-path="url(#clip0_328_365)">
<path d="M31.7188 0.820317H3.28125C2.63602 0.81375 2.01454 1.06341 1.55318 1.51453C1.09181 1.96564 0.828245 2.58135 0.820312 3.22657V31.7789C0.82968 32.4232 1.09388 33.0375 1.55509 33.4874C2.01629 33.9374 2.63696 34.1863 3.28125 34.1797H31.7188C32.364 34.1848 32.9851 33.9343 33.4462 33.4829C33.9073 33.0315 34.171 32.4159 34.1797 31.7707V3.21836C34.1682 2.57504 33.9032 1.96227 33.4424 1.51322C32.9816 1.06418 32.3622 0.81517 31.7188 0.820317Z" fill="#0076B2"/>
<path d="M5.7585 13.3246H10.7104V29.2578H5.7585V13.3246ZM8.23584 5.3949C8.80381 5.3949 9.35901 5.56335 9.83122 5.87895C10.3034 6.19456 10.6714 6.64312 10.8886 7.1679C11.1059 7.69269 11.1626 8.27011 11.0516 8.82712C10.9406 9.38413 10.6668 9.89571 10.265 10.2971C9.86324 10.6985 9.3514 10.9718 8.79429 11.0823C8.23717 11.1927 7.6598 11.1355 7.13523 10.9177C6.61065 10.7 6.16243 10.3316 5.84728 9.8591C5.53213 9.38659 5.36421 8.83122 5.36475 8.26326C5.36547 7.50227 5.66828 6.7727 6.20664 6.23485C6.74499 5.69701 7.47485 5.3949 8.23584 5.3949ZM13.8167 13.3246H18.5636V15.5121H18.6292C19.2909 14.2597 20.9042 12.939 23.3132 12.939C28.328 12.9281 29.2577 16.2285 29.2577 20.5078V29.2578H24.3058V21.5058C24.3058 19.6601 24.273 17.284 21.7327 17.284C19.1925 17.284 18.7605 19.2965 18.7605 21.3855V29.2578H13.8167V13.3246Z" fill="white"/>
</g>
<defs>
<clipPath id="clip0_328_365">
<rect width="35" height="35" fill="white"/>
</clipPath>
</defs>
</svg>
