<svg width="20" height="20" viewBox="0 0 20 20" fill="none" xmlns="http://www.w3.org/2000/svg">
<g clip-path="url(#clip0_328_342)">
<path d="M9.88864 0.167725C12.8764 0.167725 15.6428 1.49297 17.4772 3.72452C17.5295 3.78778 17.5685 3.8609 17.5919 3.93954C17.6154 4.01818 17.6227 4.10072 17.6136 4.18227C17.6045 4.26381 17.579 4.34268 17.5388 4.41419C17.4986 4.48571 17.4444 4.54839 17.3794 4.59852C17.2472 4.70217 17.0798 4.75022 16.9127 4.73249C16.7456 4.71475 16.592 4.63262 16.4845 4.50352C15.6823 3.53189 14.6745 2.75042 13.5337 2.21551C12.393 1.68061 11.1477 1.4056 9.88769 1.41032C5.21844 1.41032 1.43269 5.10772 1.43269 9.66772C1.43269 14.2277 5.21844 17.9251 9.88769 17.9251C11.1658 17.93 12.4286 17.6471 13.5825 17.0973C14.7363 16.5475 15.7515 15.745 16.5529 14.7493C16.6586 14.6188 16.811 14.5347 16.9776 14.5147C17.1443 14.4946 17.3123 14.5403 17.4459 14.6419C17.5114 14.6912 17.5664 14.7531 17.6075 14.8241C17.6486 14.895 17.675 14.9735 17.6852 15.0548C17.6954 15.1362 17.6892 15.2188 17.6668 15.2976C17.6445 15.3765 17.6065 15.4501 17.5551 15.514C15.7235 17.8035 12.9201 19.1677 9.88864 19.1677C4.51449 19.1677 0.160645 14.9146 0.160645 9.66772C0.160645 4.42087 4.51544 0.167725 9.88864 0.167725ZM16.4037 6.96972L18.9744 9.54137C19.2233 9.78932 19.2281 10.1874 18.9858 10.4306L16.474 12.9414C16.3549 13.0581 16.1942 13.1226 16.0275 13.1208C15.8607 13.119 15.7015 13.0511 15.5848 12.9319C15.5256 12.8742 15.4784 12.8054 15.4458 12.7294C15.4133 12.6534 15.396 12.5717 15.395 12.489C15.3941 12.4063 15.4094 12.3243 15.4402 12.2475C15.471 12.1708 15.5166 12.1009 15.5744 12.0418L17.044 10.5721H7.24954C7.16695 10.5731 7.08498 10.5579 7.00829 10.5272C6.9316 10.4965 6.86171 10.451 6.80261 10.3933C6.7435 10.3356 6.69634 10.2668 6.66381 10.1909C6.63129 10.115 6.61404 10.0334 6.61304 9.95082C6.61304 9.60693 6.89804 9.32857 7.24954 9.32857H17.0051L15.525 7.84847C15.4057 7.73193 15.3376 7.57279 15.3356 7.40604C15.3337 7.23929 15.398 7.07859 15.5145 6.95927C15.6339 6.84277 15.7946 6.77842 15.9613 6.78038C16.1281 6.78234 16.2872 6.85045 16.4037 6.96972Z" fill="#694D75"/>
</g>
<defs>
<clipPath id="clip0_328_342">
<rect width="19" height="19" fill="white" transform="translate(0.160645 0.167725)"/>
</clipPath>
</defs>
</svg>
