<svg width="20" height="20" viewBox="0 0 20 20" fill="none" xmlns="http://www.w3.org/2000/svg">
<path d="M10.4561 19.0768C5.20311 19.0768 0.956055 14.8297 0.956055 9.57678C0.956055 4.32384 5.20311 0.0767822 10.4561 0.0767822C15.709 0.0767822 19.9561 4.32384 19.9561 9.57678C19.9561 14.8297 15.709 19.0768 10.4561 19.0768ZM10.4561 1.19443C5.81782 1.19443 2.0737 4.93855 2.0737 9.57678C2.0737 14.215 5.81782 17.9591 10.4561 17.9591C15.0943 17.9591 18.8384 14.215 18.8384 9.57678C18.8384 4.93855 15.0943 1.19443 10.4561 1.19443Z" fill="#694D75"/>
<path d="M8.25 13.25C8.04375 13.25 7.86713 13.1765 7.72013 13.0295C7.57313 12.8825 7.49975 12.706 7.5 12.5V8.75C7.5 8.54375 7.5735 8.36713 7.7205 8.22013C7.8675 8.07313 8.044 7.99975 8.25 8H8.625V7.25C8.625 6.73125 8.80788 6.289 9.17363 5.92325C9.53938 5.5575 9.9815 5.37475 10.5 5.375C11.0188 5.375 11.461 5.55788 11.8268 5.92363C12.1925 6.28938 12.3753 6.7315 12.375 7.25V8H12.75C12.9563 8 13.1329 8.0735 13.2799 8.2205C13.4269 8.3675 13.5003 8.544 13.5 8.75V12.5C13.5 12.7063 13.4265 12.8829 13.2795 13.0299C13.1325 13.1769 12.956 13.2502 12.75 13.25H8.25ZM10.5 11.375C10.7063 11.375 10.8829 11.3015 11.0299 11.1545C11.1769 11.0075 11.2503 10.831 11.25 10.625C11.25 10.4188 11.1765 10.2421 11.0295 10.0951C10.8825 9.94813 10.706 9.87475 10.5 9.875C10.2938 9.875 10.1171 9.9485 9.97013 10.0955C9.82313 10.2425 9.74975 10.419 9.75 10.625C9.75 10.8313 9.8235 11.0079 9.9705 11.1549C10.1175 11.3019 10.294 11.3752 10.5 11.375ZM9.375 8H11.625V7.25C11.625 6.9375 11.5156 6.67188 11.2969 6.45313C11.0781 6.23438 10.8125 6.125 10.5 6.125C10.1875 6.125 9.92188 6.23438 9.70313 6.45313C9.48438 6.67188 9.375 6.9375 9.375 7.25V8Z" fill="#694D75"/>
</svg>
