<svg width="20" height="20" viewBox="0 0 20 20" fill="none" xmlns="http://www.w3.org/2000/svg">
<path d="M13.6608 7.7856C13.6608 8.81803 13.2572 9.80817 12.5389 10.5382C11.8206 11.2682 10.8464 11.6784 9.83052 11.6784C8.81467 11.6784 7.84042 11.2682 7.12211 10.5382C6.40379 9.80817 6.00024 8.81803 6.00024 7.7856C6.00024 6.75317 6.40379 5.76303 7.12211 5.03299C7.84042 4.30295 8.81467 3.89282 9.83052 3.89282C10.8464 3.89282 11.8206 4.30295 12.5389 5.03299C13.2572 5.76303 13.6608 6.75317 13.6608 7.7856Z" fill="#694D75"/>
<path fill-rule="evenodd" clip-rule="evenodd" d="M9.43939 19.4561C4.3322 19.2478 0.254395 14.9736 0.254395 9.73195C0.254395 4.35699 4.54143 0 9.83008 0C15.1187 0 19.4058 4.35699 19.4058 9.73195C19.4058 15.1069 15.1187 19.4639 9.83008 19.4639C9.78635 19.4642 9.74262 19.4642 9.69889 19.4639C9.61223 19.4639 9.52557 19.461 9.43939 19.4561ZM3.68536 15.8728C3.61377 15.6638 3.5894 15.4412 3.61406 15.2213C3.63873 15.0015 3.71179 14.7901 3.82784 14.6029C3.94388 14.4157 4.09992 14.2575 4.28438 14.1399C4.46884 14.0224 4.67697 13.9486 4.89333 13.924C8.62594 13.5041 11.0572 13.542 14.7716 13.9327C14.9883 13.9557 15.1969 14.0285 15.3817 14.1458C15.5664 14.2631 15.7224 14.4217 15.8377 14.6095C15.9531 14.7973 16.0247 15.0093 16.0472 15.2295C16.0697 15.4497 16.0425 15.6722 15.9676 15.8801C17.5595 14.2431 18.451 12.0335 18.4482 9.73195C18.4482 4.89468 14.5897 0.973195 9.83008 0.973195C5.07048 0.973195 1.21196 4.89468 1.21196 9.73195C1.21196 12.1241 2.15565 14.2923 3.68536 15.8728Z" fill="#694D75"/>
</svg>
