<svg width="17" height="18" viewBox="0 0 17 18" fill="none" xmlns="http://www.w3.org/2000/svg">
<path d="M10.1458 0.419922C10.2715 0.419926 10.394 0.459826 10.4955 0.533877C10.5971 0.607928 10.6726 0.712308 10.711 0.831984L11.3642 2.86142C11.6385 2.99561 11.9009 3.14642 12.1515 3.31623L14.2367 2.86736C14.3597 2.84111 14.4878 2.85456 14.6026 2.90578C14.7174 2.957 14.813 3.04334 14.8756 3.15236L16.5215 6.00117C16.5843 6.11013 16.6109 6.23624 16.5975 6.3613C16.5841 6.48637 16.5312 6.60394 16.4467 6.69705L15.0157 8.27642C15.0366 8.57927 15.0366 8.8832 15.0157 9.18605L16.4467 10.7678C16.5312 10.8609 16.5841 10.9785 16.5975 11.1035C16.6109 11.2286 16.5843 11.3547 16.5215 11.4637L14.8756 14.3137C14.8128 14.4225 14.7172 14.5086 14.6024 14.5596C14.4876 14.6106 14.3595 14.6238 14.2367 14.5975L12.1515 14.1486C11.9021 14.3172 11.6385 14.4692 11.3654 14.6034L10.711 16.6329C10.6726 16.7525 10.5971 16.8569 10.4955 16.931C10.394 17.005 10.2715 17.0449 10.1458 17.0449H6.85404C6.72833 17.0449 6.60587 17.005 6.50429 16.931C6.40271 16.8569 6.32726 16.7525 6.28879 16.6329L5.63685 14.6046C5.36328 14.4708 5.0994 14.3181 4.84716 14.1474L2.7631 14.5975C2.64015 14.6237 2.51205 14.6103 2.39724 14.5591C2.28242 14.5078 2.18683 14.4215 2.12423 14.3125L0.478352 11.4637C0.415503 11.3547 0.388883 11.2286 0.402328 11.1035C0.415774 10.9785 0.468591 10.8609 0.553165 10.7678L1.9841 9.18605C1.96337 8.88399 1.96337 8.58086 1.9841 8.2788L0.553165 6.69705C0.468591 6.60394 0.415774 6.48637 0.402328 6.3613C0.388883 6.23624 0.415503 6.11013 0.478352 6.00117L2.12423 3.15117C2.187 3.04237 2.28267 2.95627 2.39747 2.90527C2.51227 2.85428 2.64028 2.841 2.7631 2.86736L4.84716 3.31742C5.09891 3.14761 5.36254 2.99442 5.63685 2.86023L6.28998 0.831984C6.32832 0.712694 6.40341 0.60859 6.50452 0.534575C6.60562 0.46056 6.72755 0.420427 6.85285 0.419922H10.1446H10.1458ZM9.71116 1.60742H7.28866L6.61416 3.70573L6.15935 3.9278C5.93577 4.03721 5.71993 4.16179 5.51335 4.30067L5.09298 4.58567L2.93648 4.12017L1.72523 6.21967L3.20366 7.85605L3.16804 8.35955C3.15098 8.60784 3.15098 8.85701 3.16804 9.1053L3.20366 9.6088L1.72285 11.2452L2.93529 13.3447L5.09179 12.8804L5.51216 13.1642C5.71874 13.3031 5.93458 13.4276 6.15816 13.537L6.61298 13.7591L7.28866 15.8574H9.71354L10.3904 13.7579L10.844 13.537C11.0674 13.4279 11.2828 13.3033 11.4889 13.1642L11.908 12.8804L14.0657 13.3447L15.277 11.2452L13.7974 9.6088L13.833 9.1053C13.8501 8.85661 13.8501 8.60704 13.833 8.35836L13.7974 7.85486L15.2782 6.21967L14.0657 4.12017L11.908 4.5833L11.4889 4.30067C11.2829 4.16151 11.0674 4.03692 10.844 3.9278L10.3904 3.70692L9.71235 1.60742H9.71116ZM8.49991 5.16992C9.44475 5.16992 10.3509 5.54526 11.019 6.21335C11.6871 6.88145 12.0624 7.78759 12.0624 8.73242C12.0624 9.67726 11.6871 10.5834 11.019 11.2515C10.3509 11.9196 9.44475 12.2949 8.49991 12.2949C7.55508 12.2949 6.64894 11.9196 5.98085 11.2515C5.31275 10.5834 4.93741 9.67726 4.93741 8.73242C4.93741 7.78759 5.31275 6.88145 5.98085 6.21335C6.64894 5.54526 7.55508 5.16992 8.49991 5.16992ZM8.49991 6.35742C7.87003 6.35742 7.26593 6.60764 6.82054 7.05304C6.37514 7.49844 6.12491 8.10253 6.12491 8.73242C6.12491 9.36231 6.37514 9.9664 6.82054 10.4118C7.26593 10.8572 7.87003 11.1074 8.49991 11.1074C9.1298 11.1074 9.73389 10.8572 10.1793 10.4118C10.6247 9.9664 10.8749 9.36231 10.8749 8.73242C10.8749 8.10253 10.6247 7.49844 10.1793 7.05304C9.73389 6.60764 9.1298 6.35742 8.49991 6.35742Z" fill="#694D75"/>
</svg>
