<svg width="15" height="16" viewBox="0 0 15 16" fill="none" xmlns="http://www.w3.org/2000/svg">
<path d="M12.5274 8.48406C12.5533 10.9008 14.9731 11.705 14.9999 11.7153C14.9794 11.772 14.6132 12.8614 13.7251 13.9866C12.9573 14.9594 12.1603 15.9287 10.905 15.9487C9.67155 15.9685 9.27487 15.3147 7.86464 15.3147C6.45482 15.3147 6.01413 15.9287 4.84648 15.9685C3.63476 16.0082 2.71202 14.9165 1.93788 13.9472C0.35585 11.9646 -0.853114 8.34469 0.770225 5.90121C1.57665 4.68775 3.01788 3.91939 4.5821 3.89968C5.77196 3.88003 6.89509 4.59363 7.62247 4.59363C8.34939 4.59363 9.71421 3.73547 11.149 3.86149C11.7496 3.88317 13.4357 4.07177 14.5183 5.44554C14.431 5.49242 12.5065 6.46364 12.5274 8.48411M10.2093 2.54979C10.8526 1.87474 11.2856 0.93506 11.1675 0C10.2401 0.0323048 9.1189 0.53567 8.45374 1.21031C7.85767 1.8078 7.33565 2.76404 7.47651 3.68056C8.51011 3.74989 9.56591 3.22524 10.2093 2.54979Z" fill="black"/>
</svg>
