<svg width="42" height="42" viewBox="0 0 42 42" fill="none" xmlns="http://www.w3.org/2000/svg">
<path d="M25.3374 29.5454L25.3374 29.5455L25.3409 29.5418C26.0556 28.8025 26.0612 27.6345 25.3146 26.911L19.3835 21L25.3146 15.0891C26.0593 14.3674 26.0587 13.1759 25.3374 12.4545C24.598 11.7151 23.4276 11.7091 22.7033 12.4559L15.4345 19.6831L15.4339 19.6837C15.0866 20.031 14.8877 20.5028 14.8877 21C14.8877 21.4971 15.0866 21.969 15.4339 22.3163L15.4345 22.3169L22.7016 29.5423C23.056 29.9195 23.5329 30.0916 24.0002 30.0916C24.49 30.0916 24.9642 29.9186 25.3374 29.5454ZM21.0002 41.5333C9.68674 41.5333 0.466885 32.3135 0.466885 21C0.466885 9.66658 9.68536 0.467815 20.9981 0.46664C20.9988 0.46664 20.9995 0.46664 21.0002 0.46664L21.5748 0.474533C21.5756 0.474552 21.5763 0.474575 21.5771 0.474594C32.6449 0.7803 41.5336 9.85858 41.5336 21C41.5336 32.3137 32.3343 41.5333 21.0002 41.5333Z" fill="#F8F7FC" stroke="#4D2C5A" stroke-width="0.6"/>
</svg>
