<svg width="33" height="33" viewBox="0 0 33 33" fill="none" xmlns="http://www.w3.org/2000/svg">
<path d="M16.4998 32.75C7.54608 32.75 0.249832 25.4538 0.249832 16.5C0.249832 7.53 7.54608 0.25 16.4998 0.25L16.9545 0.256245C25.7145 0.497265 32.7498 7.68203 32.7498 16.5C32.7498 25.4538 25.4698 32.75 16.4998 32.75ZM18.8398 23.3575C19.1648 23.3575 19.4736 23.2437 19.7173 23C20.1886 22.5125 20.1886 21.7487 19.7011 21.2775L14.9073 16.5L19.7011 11.7225C20.1886 11.2513 20.1886 10.4713 19.7173 10C19.2298 9.5125 18.4661 9.5125 17.9948 10L12.3236 15.6388C12.0961 15.8663 11.9661 16.175 11.9661 16.5C11.9661 16.825 12.0961 17.1337 12.3236 17.3612L17.9948 23C18.2223 23.2437 18.5311 23.3575 18.8398 23.3575Z" fill="#4D2C5A"/>
</svg>
