<svg width="32" height="32" viewBox="0 0 32 32" fill="none" xmlns="http://www.w3.org/2000/svg">
<path fill-rule="evenodd" clip-rule="evenodd" d="M18.0236 8.29494C17.459 8.10345 16.8552 8 16.2294 8C13.3828 8 10.9915 10.1403 10.6772 12.9694L10.4254 15.2356L10.4189 15.2933C10.29 16.417 9.92423 17.5005 9.3458 18.4725L9.31601 18.5222L8.73797 19.4856C8.21342 20.3599 7.95114 20.797 8.00776 21.1559C8.04544 21.3946 8.16833 21.6117 8.35369 21.7668C8.63226 22 9.14204 22 10.1616 22H22.2971C23.3167 22 23.8264 22 24.105 21.7668C24.2904 21.6117 24.4133 21.3946 24.4509 21.1559C24.5076 20.797 24.2453 20.3599 23.7207 19.4856L23.1427 18.5222L23.1129 18.4725C22.6567 17.7059 22.3328 16.8698 22.153 15.9994C19.4268 15.9586 17.2294 13.7359 17.2294 11C17.2294 10.0033 17.521 9.07473 18.0236 8.29494ZM20.5034 9.98883C20.3292 10.2855 20.2294 10.6311 20.2294 11C20.2294 11.9498 20.8914 12.7449 21.7792 12.9491C21.6498 11.8213 21.1902 10.8038 20.5034 9.98883Z" fill="#4D2C5A"/>
<path d="M13.3314 22.6647C13.5023 23.6215 13.879 24.467 14.4029 25.0701C14.9268 25.6731 15.5688 26 16.2292 26C16.8896 26 17.5315 25.6731 18.0555 25.0701C18.5794 24.467 18.956 23.6215 19.127 22.6647" stroke="#FE8C8C" stroke-width="2" stroke-linecap="round"/>
<circle cx="22.2292" cy="11" r="3" fill="#FE8C8C" stroke="#4D2C5A" stroke-width="2"/>
<circle cx="16.2889" cy="16.289" r="15" transform="rotate(-178.885 16.2889 16.289)" fill="#F8F9FE" fill-opacity="0.26" stroke="#4D2C5A" stroke-width="1.2"/>
</svg>
