<svg width="17" height="17" viewBox="0 0 17 17" fill="none" xmlns="http://www.w3.org/2000/svg">
<path d="M14.1945 3.8477L9.16132 1.79335C8.73742 1.62033 8.26258 1.62033 7.83868 1.79335L2.80553 3.8477C2.06932 4.14819 1.62825 4.90726 1.73173 5.69567L2.19024 9.18906C2.41835 10.9271 3.31362 12.5082 4.68665 13.5979L7.4121 15.7609C8.04923 16.2666 8.95077 16.2666 9.5879 15.7609L12.3134 13.5979C13.6864 12.5082 14.5817 10.9271 14.8098 9.18906L15.2683 5.69567C15.3718 4.90726 14.9307 4.14819 14.1945 3.8477Z" stroke="#1BD4CA" stroke-width="1.5" stroke-linecap="round"/>
<path d="M5.875 9L8.07898 11.099C8.30054 11.31 8.65796 11.2743 8.83342 11.0237L12 6.5" stroke="#4D2C5A" stroke-width="2" stroke-linecap="round"/>
</svg>
