<svg width="16" height="16" viewBox="0 0 16 16" fill="none" xmlns="http://www.w3.org/2000/svg">
<path d="M2.59607 4.29198C2.59607 3.35523 3.35507 2.59623 4.29182 2.59548H5.06357C5.51132 2.59548 5.94032 2.41773 6.25832 2.10273L6.79757 1.56273C7.45832 0.898228 8.53232 0.895228 9.19682 1.55598L9.19757 1.55673L9.20432 1.56273L9.74432 2.10273C10.0623 2.41848 10.4913 2.59548 10.9391 2.59548H11.7101C12.6468 2.59548 13.4066 3.35448 13.4066 4.29198V5.06223C13.4066 5.50998 13.5836 5.93973 13.8993 6.25773L14.4393 6.79773C15.1038 7.45848 15.1076 8.53248 14.4468 9.19698L14.4461 9.19773L14.4393 9.20448L13.8993 9.74448C13.5836 10.0617 13.4066 10.4907 13.4066 10.9385V11.7102C13.4066 12.647 12.6476 13.406 11.7108 13.406H11.7101H10.9376C10.4898 13.406 10.0601 13.5837 9.74282 13.8995L9.20282 14.4387C8.54282 15.1032 7.46957 15.107 6.80507 14.4477C6.80432 14.447 6.80357 14.4462 6.80282 14.4455L6.79607 14.4387L6.25682 13.8995C5.93957 13.5837 5.50982 13.4067 5.06207 13.406H4.29182C3.35507 13.406 2.59607 12.647 2.59607 11.7102V10.937C2.59607 10.4892 2.41832 10.0602 2.10257 9.74298L1.56332 9.20298C0.898823 8.54298 0.895073 7.46973 1.55507 6.80523C1.55507 6.80448 1.55582 6.80373 1.55657 6.80298L1.56332 6.79623L2.10257 6.25623C2.41832 5.93823 2.59607 5.50923 2.59607 5.06073V4.29198" stroke="#4D2C5A" stroke-width="1.2" stroke-linecap="round" stroke-linejoin="round"/>
<path d="M6.07349 9.92873L9.92849 6.07373" stroke="#4D2C5A" stroke-width="1.2" stroke-linecap="round" stroke-linejoin="round"/>
<path d="M9.87162 9.875H9.87837" stroke="#4D2C5A" stroke-width="1.2" stroke-linecap="round" stroke-linejoin="round"/>
<path d="M6.12162 6.125H6.12837" stroke="#4D2C5A" stroke-width="1.2" stroke-linecap="round" stroke-linejoin="round"/>
</svg>
