<svg width="9" height="8" viewBox="0 0 9 8" fill="none" xmlns="http://www.w3.org/2000/svg">
<path d="M4.14105 1.19879L4.5 1.56897L4.85895 1.19879C5.2592 0.786036 5.78586 0.5 6.35143 0.5C7.51525 0.5 8.5 1.43382 8.5 2.63713C8.5 3.50984 8.12127 4.26551 7.57183 4.92727L7.57163 4.92751C7.02129 5.59117 6.29999 6.16063 5.61481 6.6583C5.6148 6.65831 5.6148 6.65831 5.61479 6.65832L4.5 7.46795L3.38535 6.65842C2.70045 6.16058 1.97861 5.59109 1.42772 4.92734C0.878713 4.26551 0.5 3.50983 0.5 2.63713C0.5 1.43382 1.48475 0.5 2.64857 0.5C3.21368 0.5 3.74085 0.786084 4.14105 1.19879Z" fill="#F8F7FC" stroke="#1BD4CA"/>
</svg>
