<svg width="23" height="27" viewBox="0 0 23 27" fill="none" xmlns="http://www.w3.org/2000/svg">
<path fill-rule="evenodd" clip-rule="evenodd" d="M14.6367 0.166016C14.6941 0.166016 14.7503 0.170857 14.8051 0.180152L14.9852 0.181216C15.2572 0.181216 15.5172 0.291882 15.7066 0.487882L22.4612 7.52388C22.6386 7.70922 22.7387 7.95855 22.7387 8.21588V20.4692C22.7599 23.8145 20.1519 26.5332 16.8012 26.6532H5.94791C2.69427 26.5833 0.0848445 23.9541 0.00439381 20.7335L0.00390625 6.15321C0.0825729 2.84522 2.81324 0.181216 6.09591 0.181216L14.4683 0.180152C14.5231 0.170857 14.5793 0.166016 14.6367 0.166016ZM13.6359 2.18068L6.09991 2.18122C3.89057 2.18122 2.05591 3.97055 2.00391 6.17722V20.4692C1.95591 22.7372 3.74257 24.6039 5.98924 24.6532H16.7666C18.9919 24.5732 20.7532 22.7372 20.7387 20.4759L20.7386 9.47668L18.0607 9.47801C15.6194 9.47135 13.6367 7.48202 13.6367 5.04468L13.6359 2.18068ZM10.8578 9.71122C11.1338 9.71122 11.3838 9.82322 11.5648 10.0042L11.5662 10.0051L14.6942 13.1464C15.0835 13.5384 15.0822 14.1704 14.6915 14.5597C14.2995 14.9491 13.6662 14.9491 13.2768 14.5571L11.8572 13.1313L11.8578 18.7659C11.8578 19.3179 11.4098 19.7659 10.8578 19.7659C10.3058 19.7659 9.85777 19.3179 9.85777 18.7659L9.85724 13.1313L8.43951 14.5571C8.24484 14.7544 7.98751 14.8517 7.73151 14.8517C7.47684 14.8517 7.22084 14.7544 7.02617 14.5597C6.63551 14.1704 6.63284 13.5384 7.02351 13.1464L10.1488 10.0051L10.1934 9.96396C10.2127 9.9468 10.2327 9.93038 10.2533 9.91473L10.1488 10.0051C10.186 9.96776 10.2261 9.93414 10.2684 9.9042C10.433 9.78282 10.6371 9.71122 10.8578 9.71122ZM15.6359 3.30202L15.6367 5.04468C15.6367 6.38335 16.7247 7.47402 18.0634 7.47802L19.6426 7.47668L15.6359 3.30202Z" fill="#4D2C5A"/>
</svg>
