<svg width="17" height="16" viewBox="0 0 17 16" fill="none" xmlns="http://www.w3.org/2000/svg">
<path d="M15.3703 6.69431H14.8333V6.66665H8.83332V9.33331H12.601C12.0513 10.8856 10.5743 12 8.83332 12C6.62432 12 4.83332 10.209 4.83332 7.99998C4.83332 5.79098 6.62432 3.99998 8.83332 3.99998C9.85299 3.99998 10.7807 4.38465 11.487 5.01298L13.3727 3.12731C12.182 2.01765 10.5893 1.33331 8.83332 1.33331C5.15166 1.33331 2.16666 4.31831 2.16666 7.99998C2.16666 11.6816 5.15166 14.6666 8.83332 14.6666C12.515 14.6666 15.5 11.6816 15.5 7.99998C15.5 7.55298 15.454 7.11665 15.3703 6.69431Z" fill="#FFC107"/>
<path d="M2.93533 4.89698L5.12567 6.50331C5.71833 5.03598 7.15367 3.99998 8.83333 3.99998C9.853 3.99998 10.7807 4.38465 11.487 5.01298L13.3727 3.12731C12.182 2.01765 10.5893 1.33331 8.83333 1.33331C6.27267 1.33331 4.052 2.77898 2.93533 4.89698Z" fill="#FF3D00"/>
<path d="M8.83333 14.6667C10.5553 14.6667 12.12 14.0077 13.303 12.936L11.2397 11.19C10.5478 11.7161 9.70248 12.0007 8.83333 12C7.09933 12 5.627 10.8943 5.07233 9.35132L2.89833 11.0263C4.00166 13.1853 6.24233 14.6667 8.83333 14.6667Z" fill="#4CAF50"/>
<path d="M15.3703 6.69435H14.8333V6.66669H8.83333V9.33335H12.601C12.3381 10.0722 11.8644 10.7177 11.2387 11.1904L11.2397 11.1897L13.303 12.9357C13.157 13.0684 15.5 11.3334 15.5 8.00002C15.5 7.55302 15.454 7.11669 15.3703 6.69435Z" fill="#1976D2"/>
</svg>
