<svg width="25" height="26" viewBox="0 0 25 26" fill="none" xmlns="http://www.w3.org/2000/svg">
<g filter="url(#filter0_d_2073_2831)">
<path d="M8.66575 6.18823C6.28289 6.18823 4.25146 8.19642 4.25146 10.8032C4.25146 12.6019 4.99889 14.1157 5.98975 15.3699C6.97804 16.6202 8.25261 17.6697 9.40375 18.5482L11.3915 20.064C11.4978 20.145 11.6232 20.1882 11.7515 20.1882C11.8798 20.1882 12.0052 20.145 12.1115 20.064L14.0992 18.5482C15.2512 17.6697 16.5249 16.6202 17.5123 15.3699C18.504 14.1157 19.2515 12.6019 19.2515 10.8032C19.2515 8.19642 17.22 6.18823 14.8372 6.18823C13.608 6.18823 12.5272 6.83703 11.7515 7.677C10.9758 6.83703 9.89404 6.18823 8.66575 6.18823Z" fill="#1BD4CA"/>
<path d="M17.1199 15.06L17.1201 15.0598C18.0673 13.8619 18.7515 12.4544 18.7515 10.8032C18.7515 8.45968 16.9312 6.68823 14.8372 6.68823C13.7891 6.68823 12.8323 7.24361 12.1188 8.01622L11.7515 8.41397L11.3841 8.01622C10.6707 7.24366 9.71303 6.68823 8.66575 6.68823C6.57175 6.68823 4.75146 8.45968 4.75146 10.8032C4.75146 12.4544 5.4356 13.8619 6.38201 15.0598L17.1199 15.06ZM17.1199 15.06C16.1733 16.2587 14.9416 17.277 13.796 18.1507C13.796 18.1507 13.796 18.1507 13.796 18.1507L11.8086 19.6662C11.8086 19.6662 11.8086 19.6662 11.8085 19.6663C11.7854 19.6838 11.7656 19.6882 11.7515 19.6882C11.7373 19.6882 11.7175 19.6838 11.6943 19.6662L9.7071 18.1508C9.70705 18.1507 9.707 18.1507 9.70694 18.1507M17.1199 15.06L9.70694 18.1507M9.70694 18.1507C8.56205 17.2768 7.32956 16.2586 6.38208 15.0599L9.70694 18.1507Z" stroke="#1BD4CA"/>
</g>
<defs>
<filter id="filter0_d_2073_2831" x="-1.24854" y="0.688232" width="26" height="25" filterUnits="userSpaceOnUse" color-interpolation-filters="sRGB">
<feFlood flood-opacity="0" result="BackgroundImageFix"/>
<feColorMatrix in="SourceAlpha" type="matrix" values="0 0 0 0 0 0 0 0 0 0 0 0 0 0 0 0 0 0 127 0" result="hardAlpha"/>
<feOffset/>
<feGaussianBlur stdDeviation="2.75"/>
<feComposite in2="hardAlpha" operator="out"/>
<feColorMatrix type="matrix" values="0 0 0 0 0.105882 0 0 0 0 0.831373 0 0 0 0 0.792157 0 0 0 1 0"/>
<feBlend mode="normal" in2="BackgroundImageFix" result="effect1_dropShadow_2073_2831"/>
<feBlend mode="normal" in="SourceGraphic" in2="effect1_dropShadow_2073_2831" result="shape"/>
</filter>
</defs>
</svg>
