<svg width="11" height="11" viewBox="0 0 11 11" fill="none" xmlns="http://www.w3.org/2000/svg">
<path fill-rule="evenodd" clip-rule="evenodd" d="M5.89101 10.238C6.96398 9.66972 9.875 7.85888 9.875 4.93862C9.875 2.5792 7.91625 0.666504 5.5 0.666504C3.08375 0.666504 1.125 2.5792 1.125 4.93862C1.125 7.85888 4.03602 9.66972 5.10899 10.238C5.3553 10.3684 5.6447 10.3684 5.89101 10.238ZM5.50006 6.76951C6.53559 6.76951 7.37506 5.94978 7.37506 4.9386C7.37506 3.92742 6.53559 3.10769 5.50006 3.10769C4.46452 3.10769 3.62506 3.92742 3.62506 4.9386C3.62506 5.94978 4.46452 6.76951 5.50006 6.76951Z" fill="#FDE7E5"/>
<path d="M5.89101 10.238L5.61019 9.70777L5.61019 9.70777L5.89101 10.238ZM5.10899 10.238L5.38981 9.70777L5.38981 9.70777L5.10899 10.238ZM9.275 4.93862C9.275 6.18634 8.65492 7.22734 7.85463 8.0526C7.05421 8.87801 6.11922 9.43817 5.61019 9.70777L6.17183 10.7682C6.73577 10.4695 7.79277 9.84015 8.7161 8.888C9.63957 7.9357 10.475 6.61116 10.475 4.93862H9.275ZM5.5 1.2665C7.59841 1.2665 9.275 2.92395 9.275 4.93862H10.475C10.475 2.23445 8.23408 0.0665039 5.5 0.0665039V1.2665ZM1.725 4.93862C1.725 2.92395 3.40158 1.2665 5.5 1.2665V0.0665039C2.76592 0.0665039 0.525 2.23445 0.525 4.93862H1.725ZM5.38981 9.70777C4.88078 9.43817 3.94578 8.87801 3.14536 8.0526C2.34508 7.22734 1.725 6.18634 1.725 4.93862H0.525C0.525 6.61116 1.36043 7.9357 2.2839 8.888C3.20723 9.84015 4.26423 10.4695 4.82817 10.7682L5.38981 9.70777ZM5.61019 9.70777C5.53954 9.74518 5.46046 9.74518 5.38981 9.70777L4.82817 10.7682C5.25013 10.9917 5.74987 10.9917 6.17183 10.7682L5.61019 9.70777ZM6.77506 4.9386C6.77506 5.60503 6.21776 6.16951 5.50006 6.16951V7.36951C6.85342 7.36951 7.97506 6.29454 7.97506 4.9386H6.77506ZM5.50006 3.70769C6.21776 3.70769 6.77506 4.27217 6.77506 4.9386H7.97506C7.97506 3.58267 6.85342 2.50769 5.50006 2.50769V3.70769ZM4.22506 4.9386C4.22506 4.27217 4.78235 3.70769 5.50006 3.70769V2.50769C4.14669 2.50769 3.02506 3.58267 3.02506 4.9386H4.22506ZM5.50006 6.16951C4.78235 6.16951 4.22506 5.60503 4.22506 4.9386H3.02506C3.02506 6.29454 4.14669 7.36951 5.50006 7.36951V6.16951Z" fill="#FE8C8C"/>
</svg>
