<svg width="21" height="31" viewBox="0 0 21 31" fill="none" xmlns="http://www.w3.org/2000/svg">
<path fill-rule="evenodd" clip-rule="evenodd" d="M19.9624 28.5889C19.9624 29.6697 19.1655 29.8911 18.4545 29.8911C18.4545 29.8911 17.8812 22.9601 17.7006 20.9091C17.4999 18.7083 16.3017 18.0442 12.3887 17.9563L12.3457 16.5694L17.4283 16.1267L17.3709 15.1989L12.2969 15.0361L12.2597 13.7534L17.2505 13.3334L17.1789 12.3958L12.1995 12.2428L12.1593 10.9764L17.0613 10.5662L17.0011 9.58958L12.1278 9.43657L12.0877 8.13435L16.8922 7.72741L16.8291 6.75075L12.0361 6.60425L11.9931 5.23368L16.7202 5.05137L16.66 4.07471L11.9529 3.84682L11.9071 2.42089C13.4694 2.28091 17.6404 1.90978 18.2739 1.88048C19.4206 1.82513 20.0513 2.48926 20.0283 3.90542C20.0054 5.52342 19.9624 22.2113 19.9624 28.5889ZM10.2989 29.9985C8.51867 29.4288 8.07147 27.788 8.11447 25.5775C8.15597 24.1931 8.12629 22.8072 8.0256 21.4267L9.51627 19.3236V21.0002L10.4967 22.3871C11.0896 22.2365 11.7067 22.2622 12.2883 22.462C16.6657 23.8846 14.9744 31.5156 10.2989 29.9985ZM10.8521 28.068C13.1139 28.794 13.9338 25.1022 11.8125 24.4185C9.69113 23.7349 8.7824 27.4136 10.8464 28.0778L10.8521 28.068ZM6.71553 25.6133C6.75567 27.8238 6.30847 29.4646 4.52827 30.0376C-0.150133 31.5416 -1.84433 23.9107 2.5474 22.4978C3.12922 22.2997 3.746 22.2739 4.33907 22.4229L5.2392 21.0002L5.21913 17.8L4.46807 16.8755C4.46807 16.8755 4.75473 9.89885 4.792 6.78331C4.835 2.46647 7.3978 0.835449 7.3978 0.835449C7.3978 0.835449 9.80007 2.33299 9.90327 6.75401C9.97493 9.85328 10.3161 16.7745 10.3161 16.7745L6.73273 21.2411C6.73273 21.2411 6.65533 22.641 6.7098 25.6231L6.71553 25.6133ZM3.0118 24.4641C0.887601 25.1445 1.70747 28.8395 3.96927 28.1103C6.03613 27.4494 5.13887 23.787 3.0118 24.4641ZM7.5354 17.3345C8.5932 17.188 8.3954 15.3193 7.31467 15.4691C7.09646 15.5023 6.89883 15.6326 6.76523 15.8314C6.63164 16.0301 6.57303 16.2809 6.6023 16.5287C6.63157 16.7765 6.74633 17.001 6.92132 17.1527C7.09631 17.3044 7.3172 17.371 7.5354 17.3377V17.3345Z" fill="black"/>
</svg>
