<svg width="42" height="42" viewBox="0 0 42 42" fill="none" xmlns="http://www.w3.org/2000/svg">
<path d="M21.0002 0.166687C32.4794 0.166687 41.8335 9.52085 41.8335 21C41.8335 32.5 32.4794 41.8334 21.0002 41.8334L20.4174 41.8253C9.1865 41.5163 0.16687 32.3051 0.16687 21C0.16687 9.52085 9.5002 0.166687 21.0002 0.166687ZM18.0002 12.2084C17.5835 12.2084 17.1877 12.3542 16.8752 12.6667C16.271 13.2917 16.271 14.2709 16.896 14.875L23.0419 21L16.896 27.125C16.271 27.7292 16.271 28.7292 16.8752 29.3334C17.5002 29.9584 18.4794 29.9584 19.0835 29.3334L26.3544 22.1042C26.646 21.8125 26.8127 21.4167 26.8127 21C26.8127 20.5834 26.646 20.1875 26.3544 19.8959L19.0835 12.6667C18.7919 12.3542 18.396 12.2084 18.0002 12.2084Z" fill="#4D2C5A"/>
</svg>
