<svg width="14" height="14" viewBox="0 0 14 14" fill="none" xmlns="http://www.w3.org/2000/svg">
<path d="M0.479893 0.480011C0.395339 0.564589 0.343902 0.676673 0.334911 0.795929C0.325921 0.915185 0.359975 1.03371 0.430893 1.13001L0.479893 1.18701L3.16989 3.87701C1.8585 4.79594 0.922281 6.15677 0.532893 7.71001C0.504221 7.83743 0.526542 7.97101 0.595083 8.08218C0.663624 8.19335 0.772943 8.2733 0.899663 8.30491C1.02638 8.33652 1.16044 8.3173 1.27317 8.25135C1.3859 8.1854 1.46835 8.07796 1.50289 7.95201C1.84866 6.57345 2.70041 5.37543 3.88889 4.59601L5.09589 5.80301C4.61172 6.30632 4.34428 6.97946 4.35105 7.67781C4.35781 8.37617 4.63823 9.044 5.13207 9.53784C5.6259 10.0317 6.29374 10.3121 6.99209 10.3189C7.69044 10.3256 8.36359 10.0582 8.86689 9.57401L12.8129 13.52C12.9021 13.6089 13.0216 13.6608 13.1474 13.6654C13.2733 13.67 13.3962 13.627 13.4917 13.5449C13.5872 13.4628 13.6482 13.3477 13.6625 13.2226C13.6768 13.0975 13.6434 12.9715 13.5689 12.87L13.5199 12.813L9.44489 8.73701V8.73601L8.64489 7.93701L6.73189 6.02401L4.81289 4.10501L4.05789 3.35001L1.18689 0.480011C1.09313 0.386276 0.965975 0.333618 0.833393 0.333618C0.700811 0.333618 0.573657 0.386276 0.479893 0.480011ZM5.80289 6.51001L8.15889 8.86701C7.8442 9.16908 7.42364 9.33576 6.98746 9.33129C6.55128 9.32683 6.13422 9.15157 5.82578 8.84313C5.51733 8.53468 5.34208 8.11763 5.33761 7.68145C5.33315 7.24526 5.50083 6.82471 5.80289 6.51001ZM6.99989 2.66701C6.33289 2.66701 5.68589 2.76501 5.07389 2.95001L5.89889 3.77401C7.32531 3.49147 8.80575 3.76785 10.0341 4.54601C11.2625 5.32418 12.1449 6.54462 12.4989 7.95501C12.5334 8.08097 12.6159 8.18841 12.7286 8.25435C12.8413 8.3203 12.9754 8.33952 13.1021 8.30791C13.2288 8.2763 13.3382 8.19635 13.4067 8.08518C13.4752 7.97401 13.4976 7.84043 13.4689 7.71301C13.1072 6.2713 12.2741 4.99176 11.1021 4.07756C9.93012 3.16336 8.48629 2.6669 6.99989 2.66701ZM7.12989 5.00701L9.66389 7.54001C9.63142 6.87844 9.35402 6.25261 8.88566 5.78424C8.4173 5.31588 7.79146 5.03948 7.12989 5.00701Z" fill="#FE8C8C"/>
</svg>
