<svg width="16" height="16" viewBox="0 0 16 16" fill="none" xmlns="http://www.w3.org/2000/svg">
<path d="M6.3125 9.6875L1.5625 14.4375L6.3125 9.6875ZM10.271 1.375L14.625 5.72897L10.8369 9.33659C10.7205 9.44752 10.6279 9.58092 10.5646 9.7287C10.5013 9.87649 10.4687 10.0356 10.4688 10.1963V12.4104C10.4688 12.9389 9.82928 13.2043 9.45522 12.8302L3.16978 6.54478C2.79572 6.17072 3.06053 5.53125 3.58956 5.53125H5.80366C5.96442 5.53128 6.12351 5.49867 6.2713 5.43539C6.41908 5.37211 6.55248 5.27949 6.66341 5.16313L10.271 1.375Z" fill="#FDE7E5"/>
<path d="M6.3125 9.6875L1.5625 14.4375M10.271 1.375L14.625 5.72897L10.8369 9.33659C10.7205 9.44752 10.6279 9.58092 10.5646 9.7287C10.5013 9.87649 10.4687 10.0356 10.4688 10.1963V12.4104C10.4688 12.9389 9.82928 13.2043 9.45522 12.8302L3.16978 6.54478C2.79572 6.17072 3.06053 5.53125 3.58956 5.53125H5.80366C5.96442 5.53128 6.12351 5.49867 6.2713 5.43539C6.41908 5.37211 6.55248 5.27949 6.66341 5.16313L10.271 1.375Z" stroke="#FE8C8C" stroke-width="2" stroke-linecap="round" stroke-linejoin="round"/>
</svg>
