<svg width="14" height="13" viewBox="0 0 14 13" fill="none" xmlns="http://www.w3.org/2000/svg">
<path d="M12.3333 5.25L12.3333 4.625C12.3333 4.04377 12.3333 3.75315 12.2652 3.51471C12.0802 2.86767 11.5411 2.36226 10.851 2.18889C10.5966 2.125 10.2866 2.125 9.66665 2.125" stroke="#FE8C8C" stroke-width="1.5" stroke-linejoin="round"/>
<path d="M12.3333 7.75L12.3333 8.375C12.3333 8.95623 12.3333 9.24685 12.2652 9.48529C12.0802 10.1323 11.5411 10.6377 10.851 10.8111C10.5966 10.875 10.2866 10.875 9.66665 10.875" stroke="#FE8C8C" stroke-width="1.5" stroke-linejoin="round"/>
<path d="M5.66666 10.875L4.99999 10.875C3.75384 10.875 3.13076 10.875 2.66666 10.6238C2.36262 10.4592 2.11014 10.2225 1.93461 9.9375C1.66666 9.5024 1.66666 8.91827 1.66666 7.75" stroke="#FE8C8C" stroke-width="1.5" stroke-linejoin="round"/>
<path d="M5.66666 2.125L4.99999 2.125C3.75384 2.125 3.13076 2.125 2.66666 2.3762C2.36262 2.54077 2.11014 2.77746 1.93461 3.0625C1.66666 3.4976 1.66666 4.08173 1.66666 5.25" stroke="#FE8C8C" stroke-width="1.5" stroke-linejoin="round"/>
<path d="M5.66666 12.125L5.66666 0.875" stroke="#FE8C8C" stroke-width="1.5" stroke-linecap="round" stroke-linejoin="round"/>
</svg>
