<svg width="18" height="19" viewBox="0 0 18 19" fill="none" xmlns="http://www.w3.org/2000/svg">
<path d="M6.65788 7.74707L6.65788 8.44756C6.65788 9.13571 6.65788 9.47978 6.49575 9.72864C6.41979 9.84523 6.32034 9.94468 6.20376 10.0206C5.9549 10.1828 5.61082 10.1828 4.92267 10.1828L4.40531 10.1828C4.20291 10.1828 4.10171 10.1828 4.0172 10.1682C3.60046 10.0962 3.27407 9.76978 3.20207 9.35303C3.18746 9.26853 3.18746 9.16733 3.18746 8.96492C3.18746 8.76251 3.18746 8.66131 3.20207 8.57681C3.27407 8.16006 3.60046 7.83368 4.0172 7.76167C4.10171 7.74707 4.20291 7.74707 4.40531 7.74707L6.65788 7.74707Z" fill="#1BD4CA" stroke="#1BD4CA" stroke-width="2"/>
<path d="M10.8224 4.82422L10.8224 4.12373C10.8224 3.43558 10.8224 3.0915 10.9845 2.84265C11.0605 2.72606 11.1599 2.62661 11.2765 2.55065C11.5254 2.38852 11.8694 2.38852 12.5576 2.38852L13.075 2.38852C13.2774 2.38852 13.3786 2.38852 13.4631 2.40312C13.8798 2.47513 14.2062 2.80151 14.2782 3.21825C14.2928 3.30276 14.2928 3.40396 14.2928 3.60637C14.2928 3.80877 14.2928 3.90998 14.2782 3.99448C14.2062 4.41123 13.8798 4.73761 13.4631 4.80962C13.3786 4.82422 13.2774 4.82422 13.075 4.82422L10.8224 4.82422Z" fill="#1BD4CA" stroke="#1BD4CA" stroke-width="2"/>
<path d="M10.8224 4.82422L6.65788 7.74706" stroke="#1BD4CA" stroke-width="2"/>
<path d="M6.69789 10.6868L4.44535 10.6807C4.24294 10.6801 4.14173 10.6799 4.0573 10.665C3.64096 10.5919 3.31637 10.2646 3.24664 9.84772C3.2325 9.76318 3.23306 9.66197 3.23417 9.45956C3.23528 9.25715 3.23583 9.15594 3.2509 9.07147C3.32519 8.65494 3.65336 8.32945 4.07049 8.25856C4.15508 8.24419 4.25628 8.24446 4.4587 8.24501L4.97604 8.2464C5.66418 8.24826 6.00825 8.24919 6.25622 8.41199C6.37239 8.48826 6.4713 8.58798 6.54662 8.70477C6.70738 8.95406 6.7055 9.29813 6.70173 9.98626L6.69789 10.6868Z" fill="#1BD4CA" stroke="#1BD4CA" stroke-width="2"/>
<path d="M10.8463 13.6208L13.0989 13.6269C13.3013 13.6275 13.4025 13.6277 13.4869 13.6426C13.9033 13.7157 14.2279 14.043 14.2976 14.4599C14.3117 14.5444 14.3112 14.6456 14.3101 14.8481C14.309 15.0505 14.3084 15.1517 14.2933 15.2361C14.219 15.6527 13.8909 15.9782 13.4737 16.0491C13.3892 16.0634 13.2879 16.0632 13.0855 16.0626L12.5682 16.0612C11.8801 16.0594 11.536 16.0584 11.288 15.8956C11.1718 15.8194 11.0729 15.7196 10.9976 15.6028C10.8368 15.3536 10.8387 15.0095 10.8425 14.3214L10.8463 13.6208Z" fill="#1BD4CA" stroke="#1BD4CA" stroke-width="2"/>
<path d="M10.8463 13.6208L6.69789 10.6868" stroke="#1BD4CA" stroke-width="2"/>
</svg>
